# xmcd
#
# Track frame offsets:
#	150
#	13798
#	30803
#	48045
#	63100
#	81749
#	99756
#	115463
#	129229
#	145347
#	164071
#	179480
#	193313
#	206287
#	220546
#	236277
#	252193
#	267827
#	281999
#
# Disc length: 3937 seconds
#
# Revision: 1
# Processed by: cddbd v1.5.2PL0 Copyright (c) Steve Scherf et al.
# Submitted via: audiograbber 1.83.01
#
DISCID=0b0f5f13
DTITLE=Various Artist - Hott Country Trakks 155
DYEAR=2009
DGENRE=Country
TTITLE0=Trace Adkins - Marry For Money
TTITLE1=Keith Urban - Sweet Thing
TTITLE2=One More Girl - I Can Love Anyone
TTITLE3=Taylor Swift - White Horse
TTITLE4=Tim McGraw - Nothin To Die For
TTITLE5=Little Big Town - Good Lord Willing
TTITLE6=Rodney Atkins - It's America
TTITLE7=Road Hammers - Home Grown
TTITLE8=Adam Gregory - What It Takes
TTITLE9=Cowboy Crush - He's Coming Home
TTITLE10=Trews - Man Of Two Minds ( Country Edit )
TTITLE11=Carolina Rain - Weight Of the World
TTITLE12=Tracy Millar - The L Word
TTITLE13=Kevin Fowler - Cheaper To Keep Her
TTITLE14=J R Vautour - Why Me
TTITLE15=Brooks and Dunn Feat Reba McEntire - Cowgirls Don't Cry
TTITLE16=Wikinsons - You Heal Me
TTITLE17=Kenny Chesney - Ten With A Two
TTITLE18=Randy Travis - Diggin' Up Bones ( 1986 )
EXTD=FEBURARY 2009
EXTT0=
EXTT1=
EXTT2=
EXTT3=
EXTT4=
EXTT5=
EXTT6=
EXTT7=
EXTT8=
EXTT9=
EXTT10=
EXTT11=
EXTT12=
EXTT13=
EXTT14=
EXTT15=
EXTT16=
EXTT17=
EXTT18=
PLAYORDER=
